<svg id="Capa_1" data-name="Capa 1" xmlns="http://www.w3.org/2000/svg" xmlns:xlink="http://www.w3.org/1999/xlink" viewBox="0 0 115.82 129.92"><defs><style>.cls-1,.cls-2{fill:none;}.cls-2{stroke:#9accef;stroke-miterlimit:10;stroke-width:2px;}.cls-3{clip-path:url(#clip-path);}.cls-4{fill:url(#Degradado_sin_nombre_23);}.cls-5{fill:url(#Degradado_sin_nombre_31);}.cls-6{fill:#e96624;}.cls-7{fill:#d44e28;}.cls-8{fill:#005086;}.cls-9{fill:url(#Degradado_sin_nombre_50);}.cls-10{fill:#004178;}.cls-11{fill:#0060a0;}</style><clipPath id="clip-path"><path class="cls-1" d="M110.14,76.34a49.25,49.25,0,0,1-49.25,49.25c-4.55,0-8.8-1.71-13.13-1.77C-12,123,5.3,99,5.3,76.33c0-27.2-.53-62.4,71.31-72.36C127-3,110.14,49.14,110.14,76.34Z"/></clipPath><linearGradient id="Degradado_sin_nombre_23" x1="3839.66" y1="102.49" x2="3847.58" y2="102.49" gradientTransform="matrix(-1, 0, 0, 1, 3906.57, 0)" gradientUnits="userSpaceOnUse"><stop offset="0" stop-color="#6ea9d3"/><stop offset="1" stop-color="#0060a0"/></linearGradient><linearGradient id="Degradado_sin_nombre_31" x1="3835.29" y1="94.96" x2="3862.36" y2="67.89" gradientTransform="matrix(-1, 0, 0, 1, 3906.57, 0)" gradientUnits="userSpaceOnUse"><stop offset="0" stop-color="#f4965a"/><stop offset="1" stop-color="#e36226"/></linearGradient><linearGradient id="Degradado_sin_nombre_50" x1="3806.61" y1="58.33" x2="3893.58" y2="58.33" gradientTransform="matrix(-1, 0, 0, 1, 3906.57, 0)" gradientUnits="userSpaceOnUse"><stop offset="0" stop-color="#fff"/><stop offset="0.39" stop-color="#fafdff"/><stop offset="0.87" stop-color="#ebf6ff"/><stop offset="1" stop-color="#e5f4ff"/></linearGradient></defs><title>Panel Sitio Web Vex</title><circle class="cls-2" cx="60.89" cy="76.34" r="49.25"/><g class="cls-3"><path class="cls-4" d="M66.91,77.26V127l-.38.13A10.86,10.86,0,0,1,59,127h0V77.26Z"/><polygon class="cls-5" points="108.59 57.65 17.05 110.78 6.9 105.19 99.11 52.58 108.59 57.65"/><polygon class="cls-6" points="108.59 57.65 17.05 110.78 17.05 111.45 108.59 58.5 108.59 57.65"/><polygon class="cls-7" points="6.9 105.19 6.9 105.87 17.05 111.45 17.05 110.78 6.9 105.19"/><polygon class="cls-8" points="12.15 61.71 12.15 106.55 10.62 105.87 10.46 61.2 12.15 61.71"/><polygon class="cls-9" points="12.99 62.73 99.96 12.47 99.96 53.93 12.99 104.18 12.99 62.73"/><polygon class="cls-10" points="99.28 10.11 10.46 61.2 12.15 61.71 100.64 10.61 99.28 10.11"/><path class="cls-11" d="M12.15,61.71v44.84l88.49-50.93v-45Zm1.35.74L99.07,12.82V54.25L13.5,103.86Z"/></g></svg>