<svg id="Capa_1" data-name="Capa 1" xmlns="http://www.w3.org/2000/svg" viewBox="0 0 107.74 107.74"><defs><style>.cls-2{fill:#0060a0;}</style></defs><title>Panel Sitio Web Vex</title><path class="cls-1" d="M53.87,0a53.87,53.87,0,1,0,53.87,53.87A53.87,53.87,0,0,0,53.87,0Zm25.6,38.77-5.11,5.11L63.94,33.47l-3.95,4L70.41,47.83,44.86,73.38,34.45,63l-4,3.95L40.91,77.33l-2.54,2.55,0,0a2.06,2.06,0,0,1-1.29.92l-9.71,2.17a2.18,2.18,0,0,1-.44,0,2,2,0,0,1-1.43-.59,2,2,0,0,1-.54-1.87l2.16-9.7A2.06,2.06,0,0,1,28,69.51L28,69.46,69.06,28.35a1.55,1.55,0,0,1,2.18,0l8.24,8.23a1.55,1.55,0,0,1,0,2.19Zm0,0"/></svg>